<?xml version="1.0" encoding="UTF-8"?>
<svg width="135px" height="26px" viewBox="0 0 135 26" version="1.1" xmlns="http://www.w3.org/2000/svg" xmlns:xlink="http://www.w3.org/1999/xlink">
    <!-- Generator: Sketch 46.2 (44496) - http://www.bohemiancoding.com/sketch -->
    <title>icon-label / linked</title>
    <desc>Created with Sketch.</desc>
    <defs></defs>
    <g id="Symbols" stroke="none" stroke-width="1" fill="none" fill-rule="evenodd">
        <g id="icon-label-/-linked">
            <g id="label-/-linked">
                <text id="intro" font-family="OpenSans-SemiBold, Open Sans" font-size="14" font-weight="500" line-spacing="26" letter-spacing="0.5" text-decoration="underline" fill="#909090">
                    <tspan x="30" y="15">Campus Name</tspan>
                </text>
                <path d="M19.3554688,16.4160161 C19.7721375,16.6634131 19.9804688,17.0279928 19.9804688,17.5097661 C19.9804688,17.8483094 19.8600272,18.1412752 19.6191406,18.3886723 C19.378254,18.6360694 19.082033,18.7597661 18.7304688,18.7597661 C18.6653643,18.7597661 18.5970056,18.7532557 18.5253906,18.7402348 C18.4537757,18.7272139 18.3886722,18.710938 18.3300781,18.6914067 C18.2714841,18.6718753 18.2128909,18.6458339 18.1542969,18.6132817 C18.0957028,18.5807294 18.0403648,18.5449225 17.9882812,18.5058598 C17.9361977,18.4667971 17.88737,18.4244798 17.8417969,18.3789067 C17.7962237,18.3333335 17.7539064,18.2845059 17.7148438,18.2324223 C17.6757811,18.1803387 17.6432293,18.1250007 17.6171875,18.0664067 C17.5911457,18.0078126 17.5683595,17.9492195 17.5488281,17.8906254 C17.5292968,17.8320314 17.5130209,17.7701831 17.5,17.7050786 C17.4869791,17.6399741 17.4804688,17.5748706 17.4804688,17.5097661 C17.4804688,17.3535153 17.5065102,17.2070324 17.5585938,17.0703129 C17.6106773,16.9335935 17.6822912,16.8098968 17.7734375,16.6992192 C17.8645838,16.5885416 17.9752598,16.4941415 18.1054688,16.4160161 L18.1054688,12.0410161 L15.5664062,13.3691411 C15.592448,13.4082038 15.6087239,13.450521 15.6152344,13.4960942 C15.6217448,13.5416673 15.625,13.5839846 15.625,13.6230473 L15.625,19.0527348 C15.625,19.1438811 15.6054689,19.2317708 15.5664062,19.3164067 C15.5273436,19.4010425 15.4687504,19.4694012 15.390625,19.5214848 C15.3645832,19.5475266 15.3287763,19.5768232 15.2832031,19.6093754 C15.23763,19.6419277 15.1595058,19.6907553 15.0488281,19.7558598 C14.9381505,19.8209643 14.8079435,19.8828126 14.6582031,19.9414067 C14.5084628,20.0000007 14.3294281,20.0618491 14.1210938,20.1269536 C13.9127594,20.1920581 13.6686212,20.2539064 13.3886719,20.3125004 C13.1087226,20.3710945 12.802736,20.4264325 12.4707031,20.4785161 C12.1386702,20.5305997 11.7578146,20.5696618 11.328125,20.5957036 C10.8984354,20.6217454 10.4427107,20.6347661 9.9609375,20.6347661 C8.77603574,20.6347661 7.73763467,20.5371108 6.84570312,20.3417973 C5.95377158,20.1464838 5.38086064,19.9804699 5.12695312,19.8437504 C4.87304561,19.707031 4.68750059,19.5800792 4.5703125,19.4628911 C4.42708262,19.345703 4.35546875,19.1894545 4.35546875,18.9941411 L4.35546875,13.7011723 C4.35546875,13.5970051 4.38151016,13.4993499 4.43359375,13.4082036 L0.33203125,11.2207036 C0.227864062,11.16862 0.146484668,11.0937509 0.087890625,10.9960942 C0.029296582,10.8984375 0,10.7910167 0,10.6738286 C0,10.4264315 0.104165625,10.2441417 0.3125,10.1269536 L9.66796875,5.08789106 C9.87630312,4.97070298 10.078124,4.97070298 10.2734375,5.08789106 L19.6875,10.1074223 C19.7265627,10.1334641 19.76888,10.169271 19.8144531,10.2148442 C19.8600263,10.2604173 19.8958332,10.3059898 19.921875,10.3515629 C19.9479168,10.3971361 19.9674479,10.4459637 19.9804688,10.4980473 C19.9934896,10.5501309 20,10.6087241 20,10.6738286 C20,10.7779958 19.9707034,10.8821614 19.9121094,10.9863286 C19.8535153,11.0904958 19.7721359,11.16862 19.6679688,11.2207036 L19.3554688,11.3769536 L19.3554688,16.4160161 Z M14.375,18.6816411 L14.375,14.0136723 L10.2539062,16.1816411 L9.9609375,16.2597661 C9.90885391,16.2597661 9.85677109,16.2532557 9.8046875,16.2402348 C9.75260391,16.2272139 9.70703145,16.2076829 9.66796875,16.1816411 L5.60546875,14.0332036 L5.60546875,18.6621098 C6.54297344,19.1438831 7.99478184,19.3847661 9.9609375,19.3847661 C10.7682332,19.3847661 11.5006478,19.3391936 12.1582031,19.2480473 C12.8157585,19.156901 13.2942693,19.0657561 13.59375,18.9746098 C13.8932307,18.8834635 14.1536447,18.7858083 14.375,18.6816411 Z M9.9609375,14.9316411 L18.046875,10.6542973 L9.98046875,6.33789106 L1.9140625,10.6542973 L9.9609375,14.9316411 Z" id="icon-/-campus-black" fill="#000000"></path>
            </g>
        </g>
    </g>
</svg>