<?xml version="1.0" encoding="UTF-8"?>
<svg width="1440px" height="210px" viewBox="0 0 1440 210" version="1.1" xmlns="http://www.w3.org/2000/svg" xmlns:xlink="http://www.w3.org/1999/xlink">
    <!-- Generator: Sketch 46.2 (44496) - http://www.bohemiancoding.com/sketch -->
    <title>footer</title>
    <desc>Created with Sketch.</desc>
    <defs>
        <polygon id="path-1" points="0.2608 0.923 0.2608 19.5567 18.8948 19.5567 18.8948 0.923"></polygon>
    </defs>
    <g id="Symbols" stroke="none" stroke-width="1" fill="none" fill-rule="evenodd">
        <g id="footer">
            <g id="Footer">
                <polygon id="background" fill="#000000" points="0 210 1440 210 1440 0 0 0"></polygon>
                <g id="legal" transform="translate(438.000000, 105.000000)">
                    <g id="Mozilla-Copy" transform="translate(117.000000, 0.000000)">
                        <text id="Mozilla-is-a-global" opacity="0.5" font-family="OpenSans-Regular, Open Sans" font-size="14" font-weight="normal" line-spacing="18" fill="#FFFFFF">
                            <tspan x="21" y="15">Mozilla is a global non-profit dedicated to putting you in control </tspan>
                            <tspan x="21" y="33">of your online experience and shaping the future of the web for </tspan>
                            <tspan x="21" y="51">the public good. Visit us at</tspan>
                        </text>
                        <path d="M0.9554,2.9691 L0.9554,48.9691" id="Line" stroke="#808080"></path>
                    </g>
                    <text id="mozilla.org" font-family="OpenSans-Regular, Open Sans" font-size="14" font-weight="normal" fill="#FFFFFF">
                        <tspan x="314" y="50">mozilla.org</tspan>
                    </text>
                    <g id="Mozilla-Logo" transform="translate(0.000000, 12.000000)">
                        <polygon id="Fill-1" fill="#FFFFFF" points="0 27.9747548 96.3439902 27.9747548 96.3439902 0.464303226 0 0.464303226"></polygon>
                        <path d="M26.427102,19.7072129 L28.0302574,19.7072129 L28.0302574,22.3225032 L22.9793002,22.3225032 L22.9793002,15.5437935 C22.9793002,13.4623097 22.2846749,12.6620516 20.9221058,12.6620516 C19.265135,12.6620516 18.5971912,13.8357935 18.5971912,15.5171484 L18.5971912,19.7072129 L20.2003467,19.7072129 L20.2003467,22.3225032 L15.1498417,22.3225032 L15.1498417,15.5437935 C15.1498417,13.4623097 14.4547641,12.6620516 13.0917428,12.6620516 C11.4352242,12.6620516 10.7668282,13.8357935 10.7668282,15.5171484 L10.7668282,19.7072129 L13.0655135,19.7072129 L13.0655135,22.3225032 L5.71632326,22.3225032 L5.71632326,19.7072129 L7.31947872,19.7072129 L7.31947872,12.9018581 L5.71632326,12.9018581 L5.71632326,10.2865677 L10.7668282,10.2865677 L10.7668282,12.1011484 C11.4885874,10.8203742 12.7444302,10.0467613 14.4280826,10.0467613 C16.1650981,10.0467613 17.7687058,10.8736645 18.3566048,12.6349548 C19.0245486,11.0335355 20.3875699,10.0467613 22.2846749,10.0467613 C24.4495001,10.0467613 26.427102,11.3541806 26.427102,14.209729 L26.427102,19.7072129 Z M35.9171492,19.947471 C37.7075279,19.947471 38.8833259,18.5063742 38.8833259,16.2108258 C38.8833259,13.7825032 37.57412,12.6886968 35.944283,12.6886968 C34.1801336,12.6886968 33.0848325,13.9961161 33.0848325,16.2645677 C33.0848325,18.3460516 34.0467258,19.947471 35.9171492,19.947471 Z M35.9976461,10.0463097 C40.326392,10.0463097 42.437854,12.9551484 42.437854,16.3178581 C42.437854,20.1606323 39.6584482,22.5894065 35.8104229,22.5894065 C32.0958054,22.5894065 29.5303044,20.3209548 29.5303044,16.4781806 C29.5303044,12.9551484 31.668448,10.0463097 35.9976461,10.0463097 Z M53.2692155,17.8393419 L55.9948058,18.1057935 L55.2463651,22.3225032 L44.7175456,22.3225032 L44.3702329,20.5079226 L50.9972118,12.9018581 L47.2296834,12.9018581 L46.6951475,14.7701806 L44.2096912,14.5032774 L44.6370486,10.2865677 L55.2196836,10.2865677 L55.4869515,12.1011484 L48.8061573,19.7072129 L52.707998,19.7072129 L53.2692155,17.8393419 Z M58.5187017,22.3225032 L62.1265928,22.3225032 L62.1265928,17.9992129 L58.5187017,17.9992129 L58.5187017,22.3225032 Z M58.5187017,14.6098581 L62.1265928,14.6098581 L62.1265928,10.2865677 L58.5187017,10.2865677 L58.5187017,14.6098581 Z M72.9878015,3.96172903 L67.7767548,22.3225032 L64.3832207,22.3225032 L69.5938151,3.96172903 L72.9878015,3.96172903 Z M79.9896791,3.96172903 L74.7786324,22.3225032 L71.384646,22.3225032 L76.5956927,3.96172903 L79.9896791,3.96172903 Z M84.6178012,20.1344387 C85.8469624,20.1344387 87.1561684,19.2533419 87.2366653,17.2517935 C86.6754478,17.1718581 86.0608672,17.0919226 85.4996497,17.0919226 C84.2704885,17.0919226 83.2014167,17.4387613 83.2014167,18.7466323 C83.2014167,19.5202452 83.575411,20.1344387 84.6178012,20.1344387 Z M92.0203546,20.2139226 L92.0465839,22.0289548 C91.4053217,22.3757935 90.6306517,22.5894065 89.882211,22.5894065 C88.2790555,22.5894065 87.3967547,21.655471 87.2366653,20.1872774 C86.5415877,21.4152129 85.3124265,22.5894065 83.3615062,22.5894065 C81.6244906,22.5894065 79.6473409,21.655471 79.6473409,19.1467613 C79.6473409,16.1846323 82.5063392,15.4905032 85.2590634,15.4905032 C85.9270071,15.4905032 86.6220847,15.5171484 87.2366653,15.5975355 L87.2366653,15.1969548 C87.2366653,13.9690194 87.2099837,12.501729 85.2590634,12.501729 C84.5377565,12.501729 83.976539,12.5550194 83.4148693,12.8485677 L83.0259515,14.2029548 L80.2732273,13.9094065 L80.7426421,11.1405677 C82.8541041,10.2865677 83.9227236,10.0463097 85.9003256,10.0463097 C88.4925081,10.0463097 90.6840148,11.3808258 90.6840148,14.1297935 L90.6840148,19.3603742 C90.6840148,20.0540516 90.9512828,20.2943097 91.5125002,20.2943097 C91.6730419,20.2943097 91.8331313,20.2672129 92.0203546,20.2139226 Z" id="Fill-2" fill="#000000"></path>
                    </g>
                </g>
                <g id="links" opacity="0.5" transform="translate(286.000000, 48.000000)">
                    <g id="Privacy" transform="translate(614.000000, 0.000000)">
                        <g id="Group-17">
                            <path d="M9.5778,6.3092 C8.6598,6.3092 7.9128,7.0562 7.9128,7.9742 L7.9128,9.0772 L11.2438,9.0772 L11.2438,7.9742 C11.2438,7.0562 10.4968,6.3092 9.5778,6.3092" id="Fill-12" fill="#FFFFFF"></path>
                            <g id="Group-16">
                                <mask id="mask-2" fill="white">
                                    <use xlink:href="#path-1"></use>
                                </mask>
                                <g id="Clip-15"></g>
                                <path d="M13.5778,15.0767 L5.5778,15.0767 L5.5778,9.0767 L6.6118,9.0767 L6.6118,7.9737 C6.6118,6.3397 7.9428,5.0087 9.5778,5.0087 C11.2138,5.0087 12.5448,6.3397 12.5448,7.9737 L12.5448,9.0767 L13.5778,9.0767 L13.5778,15.0767 Z M9.5778,0.9227 C4.4318,0.9227 0.2608,5.0947 0.2608,10.2397 C0.2608,15.3857 4.4318,19.5567 9.5778,19.5567 C14.7238,19.5567 18.8948,15.3857 18.8948,10.2397 C18.8948,5.0947 14.7238,0.9227 9.5778,0.9227 L9.5778,0.9227 Z" id="Fill-14" fill="#FFFFFF" mask="url(#mask-2)"></path>
                            </g>
                        </g>
                        <text opacity="0.852915281" font-family="OpenSans-Regular, Open Sans" font-size="14" font-weight="normal" fill="#FFFFFF">
                            <tspan x="29" y="15">Privacy</tspan>
                        </text>
                    </g>
                    <g id="Contact" fill="#FFFFFF">
                        <text opacity="0.852915281" font-family="OpenSans-Regular, Open Sans" font-size="14" font-weight="normal">
                            <tspan x="28" y="15">Contact</tspan>
                        </text>
                        <path d="M9,19 C13.9705627,19 18,14.9705627 18,10 C18,5.02943725 13.9705627,1 9,1 C4.02943725,1 0,5.02943725 0,10 C0,14.9705627 4.02943725,19 9,19 Z M14.6842173,8.41400187 C14.4938976,8.62335362 14.2782018,8.80732941 14.0498181,8.96592922 C12.9903713,9.68280037 11.9245806,10.4060155 10.8905098,11.1546067 C10.3576144,11.5479342 9.69783916,12.0300776 9.006344,12.0300776 L9,12.0300776 L8.993656,12.0300776 C8.30216082,12.0300776 7.6423856,11.5479342 7.10949023,11.1546067 C6.07541945,10.3996715 5.0096287,9.68280037 3.95652594,8.96592922 C3.72179822,8.80732941 3.50610247,8.62335362 3.3157827,8.41400187 L3.3157827,13.4511319 C3.3157827,14.0094033 3.77255016,14.4661707 4.33082151,14.4661707 L13.6691785,14.4661707 C14.2274498,14.4661707 14.6842173,14.0094033 14.6842173,13.4511319 L14.6842173,8.41400187 Z M14.6842173,6.54886806 C14.6842173,5.99059673 14.2211059,5.53382927 13.6691785,5.53382927 L4.33082151,5.53382927 C3.6520143,5.53382927 3.3157827,6.06672464 3.3157827,6.6884359 C3.3157827,7.26573923 3.95652594,7.98261038 4.40694941,8.28712202 C5.39026825,8.97227321 6.38627508,9.65742441 7.36959393,10.3489196 C7.78195343,10.6343993 8.47979261,11.2180465 8.993656,11.2180465 L9,11.2180465 L9.006344,11.2180465 C9.52020739,11.2180465 10.2180465,10.6343993 10.6304061,10.3489196 C11.613725,9.65742441 12.6097317,8.97227321 13.5993946,8.28712202 C14.1576659,7.90013847 14.6842173,7.25939523 14.6842173,6.54886806 Z" id="Oval-1"></path>
                    </g>
                    <g id="Contribute" transform="translate(119.000000, 0.000000)" fill="#FFFFFF">
                        <text opacity="0.852915281" font-family="OpenSans-Regular, Open Sans" font-size="14" font-weight="normal">
                            <tspan x="28" y="15">Contribute</tspan>
                        </text>
                        <g id="icon-/-github-white" transform="translate(0.000000, 1.000000)">
                            <path d="M11.8470507,17.9850526 C11.3901108,18.0691589 11.2384334,17.7816328 11.2384334,17.5400717 L11.2384334,15.0061255 C11.2384334,14.1406132 10.9570194,13.5880545 10.6288622,13.2995503 C12.632148,13.071681 14.7422757,12.290275 14.7422757,8.74607535 C14.7422757,7.73679997 14.3902698,6.90845089 13.8169484,6.27178589 C13.9104351,6.03120281 14.2147438,5.09429794 13.7215539,3.82096795 C12.9717526,3.58038487 11.2498808,4.76960858 11.2498808,4.76960858 C10.5353755,4.56618873 9.76077164,4.45763295 8.99952303,4.45763295 C8.23827442,4.45763295 7.46462452,4.56618873 6.75011924,4.76960858 C6.75011924,4.76960858 5.02729344,3.58038487 4.26509089,3.82096795 C3.78525624,5.09429794 4.08956489,6.03120281 4.18305157,6.27178589 C3.60973025,6.90845089 3.25772431,7.73679997 3.25772431,8.74607535 C3.25772431,12.2785392 5.35545074,13.071681 7.3596905,13.2995503 C7.10117123,13.5401334 6.86745456,13.9371933 6.78541523,14.5376731 C6.26933065,14.7772782 4.95670147,15.1860738 4.17160422,13.7680028 C3.67936828,12.8917327 2.78933701,12.8193622 2.78933701,12.8193622 C1.91075309,12.8076264 2.73114632,13.3836566 2.73114632,13.3836566 C3.31686894,13.660425 3.72611161,14.7293571 3.72611161,14.7293571 C4.25364354,16.3752975 6.76156659,15.8227388 6.76156659,15.8227388 C6.76156659,16.5914311 6.77396788,17.3239381 6.77396788,17.5400717 C6.77396788,17.7816328 6.60988924,18.0691589 6.15294928,17.9850526 C2.57851502,16.7596437 0,13.2995503 0,9.22724153 C0,4.13294358 4.03137421,0 8.99952303,0 C13.9686258,0 18,4.13294358 18,9.22724153 C18,13.2995503 15.421485,16.7596437 11.8470507,17.9850526" id="Fill-1"></path>
                        </g>
                    </g>
                    <g id="Discourse" transform="translate(258.000000, 0.000000)" fill="#FFFFFF">
                        <text opacity="0.852915281" font-family="OpenSans-Regular, Open Sans" font-size="14" font-weight="normal">
                            <tspan x="29" y="15">Discourse</tspan>
                        </text>
                        <path d="M14.1579823,10.973382 C13.6797961,11.5739508 13.0262409,12.0491038 12.1993561,12.3968015 C11.3724712,12.7465386 10.472176,12.9198776 9.49949021,12.9198776 C9.06106788,12.9198776 8.61448887,12.8801116 8.15567481,12.7985403 C7.52455058,13.2461629 6.81695734,13.5724482 6.03289509,13.7753569 C5.85038905,13.8212407 5.63117789,13.8620264 5.37628119,13.8987335 L5.35283069,13.8987335 C5.29777301,13.8987335 5.24475449,13.877321 5.19683391,13.8365354 C5.14789375,13.7957497 5.11934532,13.7427283 5.10914945,13.6764516 C5.10405152,13.661157 5.10099276,13.6448428 5.10099276,13.6275089 C5.10099276,13.6091553 5.10303193,13.5918214 5.1050711,13.5775464 C5.10812986,13.5612322 5.11220821,13.5469572 5.1203649,13.5316626 L5.13973705,13.4929162 C5.13973705,13.4929162 5.14789375,13.4786412 5.16624631,13.4511109 C5.18459887,13.4225609 5.19377515,13.4103252 5.19377515,13.4103252 C5.19377515,13.4103252 5.21110813,13.4031877 5.23048028,13.3746378 C5.2518916,13.3471074 5.26106788,13.3348717 5.26106788,13.3348717 C5.28655755,13.3093807 5.34569359,13.2461629 5.4374564,13.1503166 C5.52921921,13.052431 5.59549235,12.9779972 5.63627583,12.9239562 C5.6770593,12.8709349 5.73415616,12.7975207 5.80756641,12.702694 C5.88097666,12.608887 5.94521063,12.5099818 5.99822914,12.4090372 C6.05226724,12.3070731 6.10426617,12.1949125 6.15524551,12.0735752 C5.52412128,11.7065042 5.02758251,11.2558227 4.66562919,10.7215305 C4.30469547,10.1862187 4.12320902,9.61623913 4.12320902,9.01057207 C4.12320902,8.30294086 4.3638315,7.64935065 4.84099812,7.0487818 C5.32020392,6.4471933 5.97273947,5.97306 6.80064395,5.6243426 C7.62752884,5.2756252 8.52782399,5.1012665 9.49949021,5.1012665 C10.472176,5.1012665 11.3724712,5.2756252 12.1993561,5.6243426 C13.0262409,5.97306 13.6797961,6.4471933 14.1579823,7.0487818 C14.6361685,7.64935065 14.8757714,8.30294086 14.8757714,9.01057207 C14.8757714,9.71922293 14.6361685,10.3728131 14.1579823,10.973382 M9.49949021,0 C4.25371613,0 0,4.25292476 0,9.5 C0,14.7460556 4.25371613,19 9.49949021,19 C14.7462839,19 19,14.7460556 19,9.5 C19,4.25292476 14.7462839,0 9.49949021,0" id="IRC"></path>
                    </g>
                    <g id="Code-of-Conduct" transform="translate(730.000000, 0.000000)" fill="#FFFFFF">
                        <path d="M12.3237456,9.75464205 C11.540703,9.75464205 10.9116179,9.12654288 10.9116179,8.34243855 C10.9116179,7.56037351 11.540703,6.93023505 12.3237456,6.93023505 C13.1067883,6.93023505 13.7358734,7.56037351 13.7358734,8.34243855 C13.7358734,9.12654288 13.1067883,9.75464205 12.3237456,9.75464205 M13.5370539,13.1408715 C12.9854575,14.9160674 11.3643145,16.1070087 9.50050979,16.1070087 C7.63568554,16.1070087 6.01454253,14.9160674 5.46294607,13.1408715 C5.34263483,12.7656434 5.55165012,12.3791993 5.92685806,12.2588816 C6.29085055,12.1365246 6.68746981,12.3465708 6.80880064,12.7217989 C7.17279313,13.9015241 8.26579018,14.6968445 9.50050979,14.6968445 C10.7352294,14.6968445 11.8272069,13.9015241 12.1911994,12.7217989 C12.3125302,12.3465708 12.710169,12.1365246 13.0843574,12.2588816 C13.4493695,12.3791993 13.6583848,12.7656434 13.5370539,13.1408715 M6.67625436,6.93023505 C7.45929702,6.93023505 8.08838208,7.56037351 8.08838208,8.34243855 C8.08838208,9.12654288 7.45929702,9.75464205 6.67625436,9.75464205 C5.8932117,9.75464205 5.26514623,9.12654288 5.26514623,8.34243855 C5.26514623,7.56037351 5.8932117,6.93023505 6.67625436,6.93023505 M9.50050979,1 C4.25371613,1 0,5.25292476 0,10.4989804 C0,15.7470752 4.25371613,20 9.50050979,20 C14.7473035,20 19,15.7470752 19,10.4989804 C19,5.25292476 14.7473035,1 9.50050979,1"></path>
                        <text opacity="0.852915281" font-family="OpenSans-Regular, Open Sans" font-size="14" font-weight="normal">
                            <tspan x="29" y="15">Code of Conduct</tspan>
                        </text>
                    </g>
                    <g id="License" transform="translate(392.000000, 0.000000)" fill="#FFFFFF">
                        <path d="M9.5,1 C4.3,1 0,5.3 0,10.5 C0,15.7 4.3,20 9.5,20 C14.7,20 19,15.7 19,10.5 C19,5.3 14.7,1 9.5,1 L9.5,1 Z M8.3,13.3 C7.8,13.6 7.3,13.7 6.7,13.7 C5.8,13.7 5,13.4 4.4,12.9 C3.8,12.3 3.5,11.5 3.5,10.5 C3.5,9.5 3.8,8.7 4.4,8.2 C5,7.6 5.7,7.3 6.6,7.3 C7.9,7.3 8.9,7.8 9.4,8.8 L8,9.5 C7.9,9.2 7.7,9 7.5,8.9 C7.3,8.7 7.1,8.7 6.9,8.7 C6,8.7 5.5,9.3 5.5,10.5 C5.5,11.1 5.6,11.5 5.9,11.8 C6.1,12.1 6.5,12.3 7,12.3 C7.6,12.3 8.1,12 8.3,11.4 L9.6,12 C9.2,12.6 8.8,13 8.3,13.3 L8.3,13.3 Z M14.3,13.3 C13.8,13.6 13.3,13.7 12.7,13.7 C11.7,13.7 11,13.4 10.4,12.9 C9.8,12.3 9.5,11.5 9.5,10.5 C9.5,9.5 9.8,8.7 10.4,8.2 C11,7.6 11.7,7.3 12.6,7.3 C13.9,7.3 14.9,7.8 15.4,8.8 L14,9.5 C13.8,9.2 13.7,9 13.4,8.9 C13.2,8.8 13,8.7 12.8,8.7 C11.9,8.7 11.4,9.3 11.4,10.5 C11.4,11.1 11.5,11.5 11.8,11.8 C12,12.1 12.4,12.3 12.9,12.3 C13.5,12.3 14,12 14.2,11.4 L15.5,12 C15.2,12.6 14.8,13 14.3,13.3 L14.3,13.3 Z" id="Licence"></path>
                        <text opacity="0.852915281" font-family="OpenSans-Regular, Open Sans" font-size="14" font-weight="normal">
                            <tspan x="29" y="15">License</tspan>
                        </text>
                    </g>
                    <g id="Legal" transform="translate(510.000000, 0.000000)" fill="#FFFFFF">
                        <text opacity="0.852915281" font-family="OpenSans-Regular, Open Sans" font-size="14" font-weight="normal">
                            <tspan x="29" y="15">Legal</tspan>
                        </text>
                        <path d="M15.0725517,7.24667541 L8.52272605,14.9057296 C8.48907969,14.9437398 8.44115911,14.9617446 8.39323853,14.9577436 C8.36265093,14.9547428 8.33308291,14.9437398 8.30759324,14.9227342 L3.9468205,11.3327713 C3.88258653,11.2807574 3.87442984,11.1877324 3.92744835,11.1247155 L5.27636169,9.54829272 C5.3293802,9.48627608 5.42420177,9.47827394 5.48843574,9.53128816 L8.12916555,11.7048711 L13.2352562,5.73527004 C13.2892943,5.67225313 13.3841159,5.66425099 13.4473303,5.71626494 L15.0541991,7.03961987 C15.1184331,7.09163382 15.1265898,7.18465877 15.0725517,7.24667541 M9.50050979,1 C4.25371613,1 0,5.17311926 0,10.3194996 C0,15.4668801 4.25371613,19.6399994 9.50050979,19.6399994 C14.7473035,19.6399994 19,15.4668801 19,10.3194996 C19,5.17311926 14.7473035,1 9.50050979,1"></path>
                    </g>
                </g>
            </g>
        </g>
    </g>
</svg>